<?xml version="1.0" encoding="utf-8"?>
<!-- Generator: Adobe Illustrator 23.0.3, SVG Export Plug-In . SVG Version: 6.00 Build 0)  -->
<svg version="1.1" id="Layer_1" xmlns="http://www.w3.org/2000/svg" xmlns:xlink="http://www.w3.org/1999/xlink" x="0px" y="0px"
	 viewBox="0 0 395 125" style="enable-background:new 0 0 395 125;" xml:space="preserve">
<style type="text/css">
	.st0{fill:#333333;}
</style>
<g>
	<g>
		<path class="st0" d="M62.02,16.13c-2.41,5.28-8.67,9.54-13.95,9.54h-4.51l-2.17,4.79h-8.67L43.53,6.55h13.25
			C62.08,6.55,64.43,10.85,62.02,16.13z M52.69,16.13c0.57-1.26,0.05-2.34-1.21-2.34h-2.53l-2.11,4.65h2.52
			C50.62,18.44,52.12,17.39,52.69,16.13z"/>
		<path class="st0" d="M71.51,25.67h-1.96l-2.2,4.79h-8.67L69.64,6.55h13.25c5.31,0,7.63,4.3,5.19,9.58
			c-1.46,3.15-4.28,5.91-7.39,7.66l1.6,6.68h-9.3L71.51,25.67z M72.88,18.44h2.52c1.26,0,2.76-1.05,3.34-2.31
			c0.58-1.26,0.05-2.31-1.22-2.31H75L72.88,18.44z"/>
		<path class="st0" d="M105.52,6.55L94.38,30.46h-8.67L96.8,6.55H105.52z"/>
		<path class="st0" d="M119.29,6.55L117,19.73l10.13-13.18h9.45l-19.16,23.91h-10.87l3.33-23.91H119.29z"/>
		<path class="st0" d="M155.35,6.55l-3.56,23.91h-8.91l0.41-2.34h-7.38l-1.84,2.34h-8.84l19.17-23.91H155.35z M141.53,20.92h2.94
			l0.8-4.79L141.53,20.92z"/>
		<path class="st0" d="M188.2,6.55l-3.72,7.69h-6.31l-7.82,16.22h-8.63l7.79-16.22h-6.31l3.69-7.69H188.2z"/>
		<path class="st0" d="M212.49,6.55l-3.59,7.34h-11.72l-0.58,1.19h7.58l-3.36,6.89h-7.56l-0.56,1.15h11.69l-3.58,7.34h-20.35
			l11.58-23.91H212.49z"/>
	</g>
</g>
<g>
	<g>
		<path class="st0" d="M58.03,58.83c-2,0-4.62,0.74-5.39,3.11c-0.04,0.12-0.12,0.37-0.2,0.62c-1.16,8.98,44.47,0.66,35.06,29.47
			c-5.54,16.96-23.76,31.92-50.2,31.89C-1.5,123.89,5.92,92.71,5.92,92.71l34.73,0.03c-1.01,3.12,1.35,5.49,4.09,5.49
			c2.5,0,5.45-0.62,6.3-3.24c0.12-0.38,0.24-0.75,0.24-1.12c0.39-7.36-44.5,1.21-34.77-28.97c6.28-19.45,27.11-31.16,49.55-31.15
			C88.24,33.78,95.38,49.5,93.49,64.1l-31.53-0.03C62.56,61.45,61.41,58.83,58.03,58.83z"/>
		<path class="st0" d="M187.9,36.23l-16.22,48.89c-8.05,24.32-26.35,38.9-50.79,38.88c-24.44-0.02-33.02-14.62-25.07-38.94
			l16.01-48.89l30.58,0.02l-16.22,49.26c-2.54,7.73-1.65,11.85,3.47,11.85c5.12,0,8.85-4.11,11.4-11.84l16.26-49.26L187.9,36.23z"/>
		<path class="st0" d="M227.2,36.26l-28.47,85.3l-30.93-0.03l28.32-85.3L227.2,36.26z"/>
		<path class="st0" d="M311.17,36.33l-9.3,27.44l-22.52-0.02l-19.5,57.87l-30.81-0.03l19.4-57.87l-22.52-0.02l9.18-27.44
			L311.17,36.33z"/>
		<path class="st0" d="M391.51,36.4l-9,26.19l-41.8-0.03l-1.45,4.24l27.02,0.02l-8.41,24.57l-26.99-0.02l-1.4,4.12l41.72,0.04
			l-8.97,26.19l-72.59-0.06l28.91-85.3L391.51,36.4z"/>
	</g>
</g>
</svg>
